<svg width="437" height="119" viewBox="0 0 437 119" fill="none" xmlns="http://www.w3.org/2000/svg">
<g clip-path="url(#clip0_200_362)">
<path d="M154.457 109.913C145.897 109.913 137.648 106.795 132.823 98.5321H130.022V107.575H110.566V53.7874V0H130.022V39.1323H132.823C137.804 30.5575 147.142 27.2835 155.547 27.2835C176.559 27.2835 190.722 44.1213 190.722 67.8189C190.722 91.9841 175.158 109.913 154.457 109.913ZM150.255 92.452C162.24 92.452 170.8 82.6296 170.8 68.5984C170.8 54.5669 162.084 44.7449 150.255 44.7449C138.582 44.7449 130.022 54.0992 130.022 68.5984C130.022 83.0975 138.582 92.452 150.255 92.452Z" fill="white"/>
<path d="M226.224 109.913C211.282 109.913 199.142 100.87 199.142 86.0597C199.142 68.5981 212.527 62.9856 228.714 61.2706L251.593 58.932V54.5667C251.593 47.8628 246.146 43.1856 236.496 43.1856C227.313 43.1856 222.021 47.2391 220.309 53.3194H201.632C203.5 38.5084 215.796 27.2832 236.496 27.2832C256.418 27.2832 269.648 36.9493 269.648 55.8139V93.8546C269.648 98.6878 270.115 105.392 270.426 107.263V107.574H251.749C251.593 104.924 251.593 102.429 251.593 99.7795H248.791C243.967 107.574 235.562 109.913 226.224 109.913ZM218.752 85.1239C218.752 91.516 224.045 95.2582 231.515 95.2582C244.278 95.2582 251.593 85.5918 251.593 75.7701V71.8722L234.472 73.8989C223.889 75.1462 218.752 78.264 218.752 85.1239Z" fill="white"/>
<path d="M316.91 109.913C297.299 109.913 283.291 100.091 281.112 84.6568H300.257C302.436 91.516 309.595 94.4784 317.066 94.4784C324.692 94.4784 330.918 91.2048 330.918 85.4358C330.918 79.6676 325.003 78.1088 316.91 76.7051L308.661 75.3021C293.097 72.6517 283.447 66.1037 283.447 52.0722C283.447 36.7935 296.832 27.2832 315.354 27.2832C333.408 27.2832 345.393 35.7021 348.661 50.3572H329.984C327.805 44.5887 322.047 42.2501 315.51 42.2501C307.571 42.2501 302.436 45.68 302.436 50.5132C302.436 55.5021 306.482 57.0612 314.887 58.4643L323.136 59.8675C338.233 62.362 349.751 68.5981 349.751 83.721C349.751 100.247 336.054 109.913 316.91 109.913Z" fill="white"/>
<path d="M398.62 109.753C374.651 109.753 358.776 93.3825 358.776 68.2821C358.776 43.649 375.585 27.123 398.776 27.123C423.056 27.123 437.064 45.2081 437.064 69.0616V72.4916H377.764C378.699 85.4316 387.725 93.0714 398.62 93.0714C407.647 93.0714 413.095 89.9529 415.741 84.4966H435.664C431.616 99.1515 417.142 109.753 398.62 109.753ZM378.076 59.5514H418.076C416.519 49.1057 408.27 43.0254 398.62 43.0254C388.504 43.0254 379.943 48.9498 378.076 59.5514Z" fill="white"/>
</g>
<path d="M0 43.2044C0 40.9922 8.17533e-06 39.8862 0.414104 39.0354C0.810923 38.2207 1.46532 37.562 2.27466 37.1629C3.12013 36.7461 4.2195 36.7461 6.41771 36.7461H74.8152C77.0134 36.7461 78.1123 36.7461 78.9577 37.1629C79.7671 37.562 80.422 38.2207 80.8183 39.0354C81.2323 39.8862 81.2324 40.9922 81.2324 43.2044V112.038C81.2324 114.25 81.2323 115.356 80.8183 116.207C80.422 117.022 79.7671 117.68 78.9577 118.079C78.1123 118.496 77.0134 118.496 74.8152 118.496H6.41771C4.2195 118.496 3.12013 118.496 2.27466 118.079C1.46532 117.68 0.810923 117.022 0.414104 116.207C8.17533e-06 115.356 0 114.25 0 112.038V43.2044Z" fill="white"/>
<defs>
<clipPath id="clip0_200_362">
<rect width="326.434" height="110" fill="white" transform="translate(110.566)"/>
</clipPath>
</defs>
</svg>
